<svg width="244" height="182" viewBox="0 0 244 182" fill="none" xmlns="http://www.w3.org/2000/svg">
<g clip-path="url(#clip0_7_2990)">
<path d="M244 159.922H0V160.068H244V159.922Z" fill="#EBEBEB" fill-opacity="0.5"/>
<path d="M41.7728 164.611H25.62V164.757H41.7728V164.611Z" fill="#EBEBEB" fill-opacity="0.5"/>
<path d="M110.532 163.292H83.4968V163.439H110.532V163.292Z" fill="#EBEBEB" fill-opacity="0.5"/>
<path d="M53.7776 167.493H44.408V167.639H53.7776V167.493Z" fill="#EBEBEB" fill-opacity="0.5"/>
<path d="M209.206 164.513H188.124V164.66H209.206V164.513Z" fill="#EBEBEB" fill-opacity="0.5"/>
<path d="M216.623 164.513H213.549V164.66H216.623V164.513Z" fill="#EBEBEB" fill-opacity="0.5"/>
<path d="M158.112 166.272H135.274V166.418H158.112V166.272Z" fill="#EBEBEB" fill-opacity="0.5"/>
<path d="M115.656 138.136H21.4232C19.9104 138.136 18.6416 136.866 18.6416 135.352V2.78422C18.6416 1.26999 19.9104 0 21.4232 0H115.656C117.169 0 118.438 1.26999 118.438 2.78422V135.352C118.438 136.915 117.218 138.136 115.656 138.136ZM21.4232 0.146538C19.9592 0.146538 18.7392 1.31884 18.7392 2.83307V135.401C18.7392 136.866 19.9104 138.088 21.4232 138.088H115.656C117.12 138.088 118.34 136.915 118.34 135.401V2.78422C118.34 1.31884 117.169 0.0976919 115.656 0.0976919H21.4232V0.146538Z" fill="#EBEBEB"/>
<path d="M221.21 138.136H126.978C125.465 138.136 124.196 136.866 124.196 135.352V2.78422C124.196 1.26999 125.465 0 126.978 0H221.21C222.723 0 223.992 1.26999 223.992 2.78422V135.352C223.992 136.915 222.772 138.136 221.21 138.136ZM126.978 0.146538C125.514 0.146538 124.294 1.31884 124.294 2.83307V135.401C124.294 136.866 125.465 138.088 126.978 138.088H221.21C222.674 138.088 223.894 136.915 223.894 135.401V2.78422C223.894 1.31884 222.723 0.0976919 221.21 0.0976919H126.978V0.146538Z" fill="#EBEBEB"/>
<path d="M110.922 14.7026H28.9384V159.922H110.922V14.7026Z" fill="#F0F0F0" fill-opacity="0.1"/>
<path d="M110.922 7.1315H28.9384V9.37841H110.922V7.1315Z" fill="#F5F5F5"/>
<path d="M110.984 7H29V9.24691H110.984V7Z" fill="#F5F5F5" fill-opacity="0.1"/>
<path d="M216.038 7.1315H134.054V9.37841H216.038V7.1315Z" fill="#F5F5F5"/>
<path d="M95.5504 32.5314H21.1792V37.1229H95.5504V32.5314Z" fill="#FAFAFA" fill-opacity="0.5"/>
<path d="M95.6165 37.1506H110.94V32.559H95.6165V37.1506Z" fill="#E0E0E0" fill-opacity="0.5"/>
<path d="M95.5504 71.6082H21.1792V76.1997H95.5504V71.6082Z" fill="#FAFAFA" fill-opacity="0.5"/>
<path d="M95.6165 76.2273H110.94V71.6358H95.6165V76.2273Z" fill="#E0E0E0" fill-opacity="0.5"/>
<path d="M95.5504 110.685H21.1792V115.276H95.5504V110.685Z" fill="#FAFAFA" fill-opacity="0.5"/>
<path d="M95.6165 115.304H110.94V110.713H95.6165V115.304Z" fill="#E0E0E0" fill-opacity="0.5"/>
<path d="M50.02 55.0005H37.4784C36.5512 55.0005 35.8192 55.7332 35.8192 56.6613V69.9962C35.8192 70.9243 36.5512 71.657 37.4784 71.657H50.02C50.9472 71.657 51.6792 70.9243 51.6792 69.9962V56.6613C51.6792 55.7332 50.9472 55.0005 50.02 55.0005Z" fill="white"/>
<path d="M44.7984 57.0521H35.868V69.5078H44.7984V57.0521Z" fill="#F0F0F0" fill-opacity="0.5"/>
<path d="M47.4824 55.0005H40.016C39.7232 55.0005 39.4792 54.7563 39.4792 54.4632V53.2421C39.4792 52.949 39.7232 52.7048 40.016 52.7048H47.4824C47.7752 52.7048 48.0192 52.949 48.0192 53.2421V54.4632C48.0192 54.7563 47.7752 55.0005 47.4824 55.0005Z" fill="#E0E0E0" fill-opacity="0.5"/>
<path d="M71.5896 55.0005H59.048C58.1208 55.0005 57.3888 55.7332 57.3888 56.6613V69.9962C57.3888 70.9243 58.1208 71.657 59.048 71.657H71.5896C72.5168 71.657 73.2488 70.9243 73.2488 69.9962V56.6613C73.2 55.7332 72.468 55.0005 71.5896 55.0005Z" fill="white"/>
<path d="M66.3192 57.0521H57.3888V69.5078H66.3192V57.0521Z" fill="#F0F0F0" fill-opacity="0.5"/>
<path d="M69.052 55.0005H61.5856C61.2928 55.0005 61.0488 54.7563 61.0488 54.4632V53.2421C61.0488 52.949 61.2928 52.7048 61.5856 52.7048H69.052C69.3448 52.7048 69.5888 52.949 69.5888 53.2421V54.4632C69.54 54.7563 69.296 55.0005 69.052 55.0005Z" fill="#E0E0E0" fill-opacity="0.5"/>
<path d="M93.1104 55.0005H80.5688C79.6416 55.0005 78.9096 55.7332 78.9096 56.6613V69.9962C78.9096 70.9243 79.6416 71.657 80.5688 71.657H93.1104C94.0376 71.657 94.7696 70.9243 94.7696 69.9962V56.6613C94.7696 55.7332 94.0376 55.0005 93.1104 55.0005Z" fill="white"/>
<path d="M87.8888 57.0521H78.9584V69.5078H87.8888V57.0521Z" fill="#F0F0F0" fill-opacity="0.5"/>
<path d="M90.5728 55.0005H83.1064C82.8136 55.0005 82.5696 54.7563 82.5696 54.4632V53.2421C82.5696 52.949 82.8136 52.7048 83.1064 52.7048H90.5728C90.8656 52.7048 91.1096 52.949 91.1096 53.2421V54.4632C91.0608 54.7563 90.8656 55.0005 90.5728 55.0005Z" fill="#E0E0E0" fill-opacity="0.5"/>
<path d="M43.2856 23.6414H35.8192V32.5314H43.2856V23.6414Z" fill="#E0E0E0" fill-opacity="0.5"/>
<path d="M43.5296 25.8883H37.3808V30.3333H43.5296V25.8883Z" fill="#F5F5F5"/>
<path d="M43.5296 24.3253H35.5752C35.2336 24.3253 34.9896 24.0322 34.9896 23.7391V22.3714C34.9896 22.0295 35.2824 21.7853 35.5752 21.7853H43.5296C43.8712 21.7853 44.1152 22.0784 44.1152 22.3714V23.7391C44.1152 24.081 43.8712 24.3253 43.5296 24.3253Z" fill="#FAFAFA" fill-opacity="0.5"/>
<path d="M57.584 23.6414H50.1176V32.5314H57.584V23.6414Z" fill="#E0E0E0" fill-opacity="0.5"/>
<path d="M57.828 25.8883H51.6792V30.3333H57.828V25.8883Z" fill="#F5F5F5"/>
<path d="M57.828 24.3253H49.8736C49.532 24.3253 49.288 24.0322 49.288 23.7391V22.3714C49.288 22.0295 49.5808 21.7853 49.8736 21.7853H57.828C58.1696 21.7853 58.4136 22.0784 58.4136 22.3714V23.7391C58.4136 24.081 58.1208 24.3253 57.828 24.3253Z" fill="#FAFAFA" fill-opacity="0.5"/>
<path d="M71.8336 23.6414H64.3672V32.5314H71.8336V23.6414Z" fill="#E0E0E0" fill-opacity="0.5"/>
<path d="M72.1264 25.8883H65.9776V30.3333H72.1264V25.8883Z" fill="#F5F5F5"/>
<path d="M72.0776 24.3253H64.1232C63.7816 24.3253 63.5376 24.0322 63.5376 23.7391V22.3714C63.5376 22.0295 63.8304 21.7853 64.1232 21.7853H72.0776C72.4192 21.7853 72.6632 22.0784 72.6632 22.3714V23.7391C72.712 24.081 72.4192 24.3253 72.0776 24.3253Z" fill="#FAFAFA" fill-opacity="0.5"/>
<path d="M86.132 23.6414H78.6656V32.5314H86.132V23.6414Z" fill="#E0E0E0" fill-opacity="0.5"/>
<path d="M86.4248 25.8883H80.276V30.3333H86.4248V25.8883Z" fill="#F5F5F5"/>
<path d="M86.376 24.3253H78.4216C78.08 24.3253 77.836 24.0322 77.836 23.7391V22.3714C77.836 22.0295 78.1288 21.7853 78.4216 21.7853H86.376C86.7176 21.7853 86.9616 22.0784 86.9616 22.3714V23.7391C87.0104 24.081 86.7176 24.3253 86.376 24.3253Z" fill="#FAFAFA" fill-opacity="0.5"/>
<path d="M43.432 96.4219H34.2576V110.685H43.432V96.4219Z" fill="#FAFAFA" fill-opacity="0.5"/>
<path d="M41.1872 99.89H34.2576V107.266H41.1872V99.89Z" fill="#E6E6E6" fill-opacity="0.5"/>
<path d="M43.4158 110.704H47.4174V96.4409H43.4158V110.704Z" fill="#E6E6E6" fill-opacity="0.5"/>
<path d="M58.072 96.4219H48.8976V110.685H58.072V96.4219Z" fill="#FAFAFA" fill-opacity="0.5"/>
<path d="M55.8272 99.89H48.8976V107.266H55.8272V99.89Z" fill="#E6E6E6" fill-opacity="0.5"/>
<path d="M58.0557 110.704H62.0573V96.4409H58.0557V110.704Z" fill="#E6E6E6" fill-opacity="0.5"/>
<path d="M72.712 96.4219H63.5376V110.685H72.712V96.4219Z" fill="#FAFAFA" fill-opacity="0.5"/>
<path d="M70.4672 99.89H63.5376V107.266H70.4672V99.89Z" fill="#E6E6E6" fill-opacity="0.5"/>
<path d="M72.6958 110.704H76.6974V96.4409H72.6958V110.704Z" fill="#E6E6E6" fill-opacity="0.5"/>
<path d="M87.352 96.4219H78.1776V110.685H87.352V96.4219Z" fill="#FAFAFA" fill-opacity="0.5"/>
<path d="M85.1072 99.89H78.1776V107.266H85.1072V99.89Z" fill="#E6E6E6" fill-opacity="0.5"/>
<path d="M87.3357 110.704H91.3373V96.4409H87.3357V110.704Z" fill="#E6E6E6" fill-opacity="0.5"/>
<path d="M216.038 14.7026H134.054V159.922H216.038V14.7026Z" fill="#F0F0F0" fill-opacity="0.1"/>
<path d="M200.714 32.5314H126.343V37.1229H200.714V32.5314Z" fill="#FAFAFA" fill-opacity="0.5"/>
<path d="M200.747 37.1506H216.07V32.5591H200.747V37.1506Z" fill="#E0E0E0" fill-opacity="0.5"/>
<path d="M200.714 71.6082H126.343V76.1997H200.714V71.6082Z" fill="#FAFAFA" fill-opacity="0.5"/>
<path d="M200.747 76.2273H216.07V71.6358H200.747V76.2273Z" fill="#E0E0E0" fill-opacity="0.5"/>
<path d="M200.714 110.685H126.343V115.276H200.714V110.685Z" fill="#FAFAFA" fill-opacity="0.5"/>
<path d="M200.747 115.304H216.07V110.713H200.747V115.304Z" fill="#E0E0E0" fill-opacity="0.5"/>
<path d="M154.501 101.844H140.349C139.324 101.844 138.494 102.674 138.494 103.7V108.829C138.494 109.855 139.324 110.685 140.349 110.685H154.501C155.526 110.685 156.355 109.855 156.355 108.829V103.7C156.355 102.674 155.526 101.844 154.501 101.844Z" fill="white"/>
<path d="M148.547 104.14H138.446V108.291H148.547V104.14Z" fill="#F0F0F0" fill-opacity="0.5"/>
<path d="M151.622 101.844H143.179C142.838 101.844 142.594 101.6 142.594 101.258V99.89C142.594 99.548 142.838 99.3038 143.179 99.3038H151.622C151.963 99.3038 152.207 99.548 152.207 99.89V101.258C152.207 101.551 151.963 101.844 151.622 101.844Z" fill="#E0E0E0" fill-opacity="0.5"/>
<path d="M178.852 101.844H164.7C163.675 101.844 162.846 102.674 162.846 103.7V108.829C162.846 109.855 163.675 110.685 164.7 110.685H178.852C179.877 110.685 180.706 109.855 180.706 108.829V103.7C180.706 102.674 179.877 101.844 178.852 101.844Z" fill="white"/>
<path d="M172.898 104.14H162.797V108.291H172.898V104.14Z" fill="#F0F0F0" fill-opacity="0.5"/>
<path d="M175.973 101.844H167.53C167.189 101.844 166.945 101.6 166.945 101.258V99.89C166.945 99.548 167.189 99.3038 167.53 99.3038H175.973C176.314 99.3038 176.558 99.548 176.558 99.89V101.258C176.558 101.551 176.314 101.844 175.973 101.844Z" fill="#E0E0E0" fill-opacity="0.5"/>
<path d="M203.203 101.844H189.051C188.026 101.844 187.197 102.674 187.197 103.7V108.829C187.197 109.855 188.026 110.685 189.051 110.685H203.203C204.228 110.685 205.058 109.855 205.058 108.829V103.7C205.058 102.674 204.228 101.844 203.203 101.844Z" fill="white"/>
<path d="M197.25 104.14H187.148V108.291H197.25V104.14Z" fill="#F0F0F0" fill-opacity="0.5"/>
<path d="M200.324 101.844H191.882C191.54 101.844 191.296 101.6 191.296 101.258V99.89C191.296 99.548 191.54 99.3038 191.882 99.3038H200.324C200.666 99.3038 200.91 99.548 200.91 99.89V101.258C200.91 101.551 200.666 101.844 200.324 101.844Z" fill="#E0E0E0" fill-opacity="0.5"/>
<path d="M152.256 61.0574H142.642V71.6082H152.256V61.0574Z" fill="#E0E0E0" fill-opacity="0.5"/>
<path d="M152.598 63.6951H144.692V69.0193H152.598V63.6951Z" fill="#F5F5F5"/>
<path d="M152.842 61.5459H142.057C141.813 61.5459 141.569 61.3505 141.569 61.0574V60.7155C141.569 60.4713 141.764 60.2271 142.057 60.2271H152.842C153.086 60.2271 153.33 60.4224 153.33 60.7155V61.0574C153.33 61.3017 153.134 61.5459 152.842 61.5459Z" fill="#FAFAFA" fill-opacity="0.5"/>
<path d="M170.605 61.0574H160.991V71.6082H170.605V61.0574Z" fill="#E0E0E0" fill-opacity="0.5"/>
<path d="M170.946 63.6951H163.041V69.0193H170.946V63.6951Z" fill="#F5F5F5"/>
<path d="M171.19 61.5459H160.406C160.162 61.5459 159.918 61.3505 159.918 61.0574V60.7155C159.918 60.4713 160.113 60.2271 160.406 60.2271H171.19C171.434 60.2271 171.678 60.4224 171.678 60.7155V61.0574C171.678 61.3017 171.483 61.5459 171.19 61.5459Z" fill="#FAFAFA" fill-opacity="0.5"/>
<path d="M188.954 61.0574H179.34V71.6082H188.954V61.0574Z" fill="#E0E0E0" fill-opacity="0.5"/>
<path d="M189.295 63.6951H181.39V69.0193H189.295V63.6951Z" fill="#F5F5F5"/>
<path d="M189.539 61.5459H178.754C178.51 61.5459 178.266 61.3505 178.266 61.0574V60.7155C178.266 60.4713 178.462 60.2271 178.754 60.2271H189.539C189.783 60.2271 190.027 60.4224 190.027 60.7155V61.0574C190.027 61.3017 189.832 61.5459 189.539 61.5459Z" fill="#FAFAFA" fill-opacity="0.5"/>
<path d="M207.351 61.0574H197.738V71.6082H207.351V61.0574Z" fill="#E0E0E0" fill-opacity="0.5"/>
<path d="M207.644 63.6951H199.738V69.0193H207.644V63.6951Z" fill="#F5F5F5"/>
<path d="M207.888 61.5459H197.103C196.859 61.5459 196.615 61.3505 196.615 61.0574V60.7155C196.615 60.4713 196.81 60.2271 197.103 60.2271H207.888C208.132 60.2271 208.376 60.4224 208.376 60.7155V61.0574C208.376 61.3017 208.181 61.5459 207.888 61.5459Z" fill="#FAFAFA" fill-opacity="0.5"/>
<path d="M153.964 22.3226H145.57V32.5314H153.964V22.3226Z" fill="#FAFAFA" fill-opacity="0.5"/>
<path d="M151.866 24.8138H145.57V30.0891H151.866V24.8138Z" fill="#E6E6E6" fill-opacity="0.5"/>
<path d="M153.915 32.5505H157.575V22.3417H153.915V32.5505Z" fill="#E6E6E6" fill-opacity="0.5"/>
<path d="M167.335 22.3226H158.942V32.5314H167.335V22.3226Z" fill="#FAFAFA" fill-opacity="0.5"/>
<path d="M165.237 24.8138H158.942V30.0891H165.237V24.8138Z" fill="#E6E6E6" fill-opacity="0.5"/>
<path d="M167.295 32.5505H170.955V22.3417H167.295V32.5505Z" fill="#E6E6E6" fill-opacity="0.5"/>
<path d="M180.706 22.3226H172.313V32.5314H180.706V22.3226Z" fill="#FAFAFA" fill-opacity="0.5"/>
<path d="M178.608 24.8138H172.313V30.0891H178.608V24.8138Z" fill="#E6E6E6" fill-opacity="0.5"/>
<path d="M180.675 32.5505H184.335V22.3417H180.675V32.5505Z" fill="#E6E6E6" fill-opacity="0.5"/>
<path d="M194.078 22.3226H185.684V32.5314H194.078V22.3226Z" fill="#FAFAFA" fill-opacity="0.5"/>
<path d="M191.979 24.8138H185.684V30.0891H191.979V24.8138Z" fill="#E6E6E6" fill-opacity="0.5"/>
<path d="M194.056 32.5505H197.716V22.3417H194.056V32.5505Z" fill="#E6E6E6" fill-opacity="0.5"/>
<path d="M122 182C174.259 182 216.623 179.529 216.623 176.48C216.623 173.432 174.259 170.961 122 170.961C69.741 170.961 27.3768 173.432 27.3768 176.48C27.3768 179.529 69.741 182 122 182Z" fill="#F5F5F5" fill-opacity="0.1"/>
<path d="M121.219 20.6618C116.437 22.9087 115.998 29.4541 117.803 34.9737C119.072 38.9791 115.705 39.1744 114.924 44.7917C113.655 53.6328 121.61 60.862 130.003 59.299C138.397 57.7359 130.247 40.3468 133.37 34.241C136.494 28.1353 126.343 18.2684 121.219 20.6618Z" fill="#263238"/>
<path d="M137.226 158.212L142.642 158.603C141.91 162.901 141.178 169.74 141.178 169.74H136.884C136.884 169.74 137.372 161.143 137.226 158.212Z" fill="#CE7A63"/>
<path d="M109.019 158.212L114.387 158.603C113.167 162.901 111.752 169.74 111.752 169.74H107.458C107.458 169.74 108.873 161.143 109.019 158.212Z" fill="#CE7A63"/>
<path d="M132.248 173.989C136.006 173.989 135.713 173.94 137.811 173.843C139.617 173.794 140.007 173.989 141.471 173.989C142.691 173.94 142.74 172.817 142.447 171.498C142.35 171.01 142.203 170.375 142.057 169.642C141.959 169.202 141.618 168.909 141.178 168.909H136.786C136.445 168.909 136.152 169.056 135.957 169.349C135.03 170.619 133.517 171.547 131.614 171.791C129.564 172.084 130.735 173.989 132.248 173.989Z" fill="#DD1717"/>
<path d="M102.919 173.989C106.677 173.989 106.384 173.94 108.482 173.843C110.288 173.794 110.678 173.989 112.142 173.989C113.362 173.94 113.411 172.817 113.118 171.498C113.021 171.01 112.874 170.375 112.728 169.642C112.63 169.202 112.289 168.909 111.85 168.909H107.458C107.116 168.909 106.823 169.056 106.628 169.349C105.701 170.619 104.188 171.547 102.285 171.791C100.235 172.084 101.406 173.989 102.919 173.989Z" fill="#DD1717"/>
<path d="M114.631 73.8062C114.631 73.8062 111.215 100.232 111.508 117.035C110.239 132.812 108.141 162.95 108.141 162.95C108.19 163.732 112.435 163.439 113.216 162.95C113.216 162.95 122.927 142.581 121.366 117.035C132.15 90.365 131.516 73.8062 131.516 73.8062H114.631Z" fill="#263238"/>
<path opacity="0.2" d="M128.49 95.2008C127.661 98.6688 126.587 102.479 125.221 106.631C124.83 98.2781 122.537 87.0435 122.488 86.6527L128.49 95.2008Z" fill="black"/>
<path d="M119.218 73.8062C119.218 73.8062 126.929 103.651 130.003 118.305C133.224 133.691 137.714 152.741 136.835 162.95C137.714 163.439 140.788 163.487 142.496 162.95C142.496 162.95 149.133 133.789 140.69 118.989C143.716 82.5497 134.102 73.8062 134.102 73.8062H119.218Z" fill="#263238"/>
<path d="M136.445 160.85C136.396 161.387 136.347 162.266 136.201 162.95C136.152 163.194 136.298 163.439 136.542 163.487C138.592 163.829 141.618 163.341 142.594 163.145C142.789 163.097 142.935 162.95 142.935 162.804L143.277 160.85C143.326 160.605 143.13 160.361 142.838 160.361L136.835 160.459C136.689 160.459 136.494 160.605 136.445 160.85Z" fill="#263238"/>
<path opacity="0.1" d="M136.445 160.85C136.396 161.387 136.347 162.266 136.201 162.95C136.152 163.194 136.298 163.439 136.542 163.487C138.592 163.829 141.618 163.341 142.594 163.145C142.789 163.097 142.935 162.95 142.935 162.804L143.277 160.85C143.326 160.605 143.13 160.361 142.838 160.361L136.835 160.459C136.689 160.459 136.494 160.605 136.445 160.85Z" fill="white"/>
<path d="M107.75 160.752C107.702 161.289 107.604 162.266 107.506 162.999C107.458 163.243 107.653 163.439 107.848 163.487C109.605 163.732 112.484 163.487 113.46 163.439C113.655 163.439 113.802 163.292 113.85 163.097L114.387 161.143C114.436 160.899 114.29 160.605 113.997 160.605L108.238 160.361C107.994 160.361 107.75 160.508 107.75 160.752Z" fill="#263238"/>
<path opacity="0.1" d="M107.75 160.752C107.702 161.289 107.604 162.266 107.506 162.999C107.458 163.243 107.653 163.439 107.848 163.487C109.605 163.732 112.484 163.487 113.46 163.439C113.655 163.439 113.802 163.292 113.85 163.097L114.387 161.143C114.436 160.899 114.29 160.605 113.997 160.605L108.238 160.361C107.994 160.361 107.75 160.508 107.75 160.752Z" fill="white"/>
<path d="M88.3768 53.4863L89.304 54.6586C89.6456 55.0982 90.1824 55.3425 90.768 55.2936L93.4032 55.1471C94.4768 55.0982 95.404 54.5121 95.9896 53.6329L96.3312 53.0956C94.916 51.044 91.8416 49.8717 91.8416 49.8717L91.012 49.4321C90.28 49.0413 89.4016 49.2856 89.0112 50.0183L88.1328 51.679C87.8888 52.2652 87.9376 52.949 88.3768 53.4863Z" fill="#CE7A63"/>
<path d="M93.6472 44.4498L89.1576 45.3779C88.7672 45.4756 88.5232 45.8175 88.6208 46.2083L89.792 51.679C89.8896 52.0698 90.2312 52.314 90.6216 52.2163L95.1112 51.2882C95.5016 51.1906 95.7456 50.8486 95.648 50.4579L94.4768 44.9871C94.428 44.5963 94.0376 44.3521 93.6472 44.4498Z" fill="#DD1717"/>
<path d="M80.1082 33.9521L79.7464 34.28L80.9256 35.5835L81.2873 35.2557L80.1082 33.9521Z" fill="#DD1717"/>
<path d="M97.2738 38.9866L95.2079 41.3958L95.5782 41.7139L97.6441 39.3047L97.2738 38.9866Z" fill="#DD1717"/>
<path d="M82.5025 36.623L82.1407 36.9508L87.2177 42.5633L87.5795 42.2355L82.5025 36.623Z" fill="#DD1717"/>
<path d="M80.3218 42.2489L80.1613 42.7103L86.2447 44.8309L86.4052 44.3696L80.3218 42.2489Z" fill="#DD1717"/>
<path d="M92.5736 43.4729L89.792 44.059C89.5968 44.1079 89.4992 44.2544 89.548 44.4498L89.9872 46.5502C90.036 46.7456 90.1824 46.8433 90.3776 46.7944L93.1592 46.2083C93.3544 46.1594 93.452 46.0129 93.4032 45.8175L92.964 43.7171C92.9152 43.5706 92.72 43.4241 92.5736 43.4729Z" fill="#DD1717"/>
<path d="M92.6224 41.861L89.1088 42.5937C88.9624 42.6425 88.8648 42.7891 88.8648 42.9356L89.1576 44.3521C89.2064 44.4987 89.3528 44.5964 89.4992 44.5964L93.0128 43.8637C93.1592 43.8148 93.2568 43.6683 93.2568 43.5217L92.964 42.1052C92.9152 41.9587 92.7688 41.861 92.6224 41.861Z" fill="#263238"/>
<path opacity="0.8" d="M94.6375 45.6433L89.7684 46.6781L90.5996 50.5962L95.4687 49.5613L94.6375 45.6433Z" fill="white"/>
<path d="M119.853 51.0929C119.706 51.3371 119.609 51.4836 119.511 51.6302L119.17 52.1186L118.535 53.0467C118.096 53.6329 117.657 54.219 117.169 54.8052C116.242 55.9286 115.266 57.0521 114.241 58.0778C112.191 60.1782 109.849 62.0832 107.214 63.6463C106.53 64.037 105.847 64.379 105.164 64.7209L104.627 64.9651L104.481 65.014L104.432 65.0628L104.334 65.1117C104.188 65.1605 104.042 65.2093 103.846 65.2582C103.212 65.4536 102.48 65.5513 101.846 65.5024C100.528 65.4536 99.4544 65.014 98.576 64.5743C97.6976 64.0859 97.0144 63.5974 96.38 63.0113C95.1112 61.9367 94.0864 60.7644 93.1104 59.6409C92.6224 59.0548 92.1832 58.4686 91.744 57.8825C91.5 57.5894 91.3048 57.2963 91.1096 56.9544C90.8656 56.6125 90.6704 56.3682 90.4264 55.9775L96.6728 52.6071C96.7704 52.8025 96.868 53.1444 97.0144 53.3886C97.1608 53.6817 97.3072 53.9259 97.4536 54.219C97.7464 54.7563 98.0392 55.2936 98.3808 55.7821C99.0152 56.8078 99.7472 57.7359 100.528 58.4198C100.918 58.7617 101.26 59.0548 101.602 59.2501C101.943 59.4455 102.138 59.4944 102.187 59.4944H102.236L102.334 59.4455L102.724 59.2501C103.261 59.0059 103.749 58.7128 104.286 58.4198C105.31 57.8336 106.286 57.1009 107.214 56.3682C108.141 55.5867 109.019 54.7075 109.849 53.8282C110.678 52.9002 111.459 51.9232 112.142 50.9463C112.484 50.4579 112.826 49.9206 113.167 49.3833C113.314 49.139 113.46 48.846 113.606 48.6017L113.802 48.211C113.85 48.1133 113.948 47.9179 113.948 47.869L119.853 51.0929Z" fill="#DD1717"/>
<path opacity="0.7" d="M119.853 51.0929C119.706 51.3371 119.609 51.4836 119.511 51.6302L119.17 52.1186L118.535 53.0467C118.096 53.6329 117.657 54.219 117.169 54.8052C116.242 55.9286 115.266 57.0521 114.241 58.0778C112.191 60.1782 109.849 62.0832 107.214 63.6463C106.53 64.037 105.847 64.379 105.164 64.7209L104.627 64.9651L104.481 65.014L104.432 65.0628L104.334 65.1117C104.188 65.1605 104.042 65.2093 103.846 65.2582C103.212 65.4536 102.48 65.5513 101.846 65.5024C100.528 65.4536 99.4544 65.014 98.576 64.5743C97.6976 64.0859 97.0144 63.5974 96.38 63.0113C95.1112 61.9367 94.0864 60.7644 93.1104 59.6409C92.6224 59.0548 92.1832 58.4686 91.744 57.8825C91.5 57.5894 91.3048 57.2963 91.1096 56.9544C90.8656 56.6125 90.6704 56.3682 90.4264 55.9775L96.6728 52.6071C96.7704 52.8025 96.868 53.1444 97.0144 53.3886C97.1608 53.6817 97.3072 53.9259 97.4536 54.219C97.7464 54.7563 98.0392 55.2936 98.3808 55.7821C99.0152 56.8078 99.7472 57.7359 100.528 58.4198C100.918 58.7617 101.26 59.0548 101.602 59.2501C101.943 59.4455 102.138 59.4944 102.187 59.4944H102.236L102.334 59.4455L102.724 59.2501C103.261 59.0059 103.749 58.7128 104.286 58.4198C105.31 57.8336 106.286 57.1009 107.214 56.3682C108.141 55.5867 109.019 54.7075 109.849 53.8282C110.678 52.9002 111.459 51.9232 112.142 50.9463C112.484 50.4579 112.826 49.9206 113.167 49.3833C113.314 49.139 113.46 48.846 113.606 48.6017L113.802 48.211C113.85 48.1133 113.948 47.9179 113.948 47.869L119.853 51.0929Z" fill="white"/>
<path d="M112.826 51.4348C112.777 53.2909 112.679 55.6844 112.972 60.1294C113.118 63.8905 113.948 67.847 114.973 73.9528C117.022 75.1739 127.466 74.6366 134.151 73.8062C133.761 68.4332 134.395 62.3274 138.006 50.3113C138.836 47.5271 136.982 44.8406 134.005 44.5475C133.224 44.4498 132.346 44.401 131.467 44.3521C128.1 44.2056 125.318 44.1079 122.293 44.3521C121.317 44.4498 120.243 44.5475 119.267 44.694C115.705 45.1825 112.923 48.1133 112.826 51.4348Z" fill="#DD1717"/>
<path d="M114.582 75.2716C121.219 76.0043 128.198 76.0043 134.834 75.2228C135.127 75.1739 135.322 74.8808 135.176 74.5878C135.03 74.197 134.834 73.8062 134.688 73.4155C134.59 73.2201 134.444 73.1224 134.249 73.1224C127.856 73.8062 121.17 73.8551 114.778 73.1224C114.534 73.0735 114.338 73.2689 114.29 73.5132C114.241 73.9039 114.192 74.2947 114.192 74.7343C114.143 75.0274 114.338 75.2228 114.582 75.2716Z" fill="#DD1717"/>
<path d="M130.833 34.0945C130.052 37.0252 129.076 42.4471 130.979 44.401C130.979 44.401 131.565 47.2829 123.659 47.0387C117.559 46.8433 121.805 44.401 121.805 44.401C125.172 43.6194 125.27 41.1771 124.83 38.8814L130.833 34.0945Z" fill="#CE7A63"/>
<path d="M131.174 43.9614C131.174 43.9614 127.71 47.0387 126.685 54.4632C124.733 68.6774 127.71 126.755 127.71 126.755C127.71 126.755 140.398 122.603 144.985 118.647C145.18 114.69 137.518 78.0558 138.202 67.554C138.885 57.0521 140.154 47.869 138.836 45.9152C137.47 43.9125 131.174 43.9614 131.174 43.9614Z" fill="#DD1717"/>
<path opacity="0.7" d="M131.174 43.9614C131.174 43.9614 127.71 47.0387 126.685 54.4632C124.733 68.6774 127.71 126.755 127.71 126.755C127.71 126.755 140.398 122.603 144.985 118.647C145.18 114.69 137.518 78.0558 138.202 67.554C138.885 57.0521 140.154 47.869 138.836 45.9152C137.47 43.9125 131.174 43.9614 131.174 43.9614Z" fill="white"/>
<path d="M122.049 44.2544C116.778 51.044 116.827 95.1519 118.34 126.804C113.655 126.218 108.629 116.693 108.629 116.693C108.629 116.693 113.704 83.1358 112.728 68.8728C111.752 54.6098 111.898 49.6763 114.192 47.0387C116.486 44.401 122.049 44.2544 122.049 44.2544Z" fill="#DD1717"/>
<path opacity="0.7" d="M122.049 44.2544C116.778 51.044 116.827 95.1519 118.34 126.804C113.655 126.218 108.629 116.693 108.629 116.693C108.629 116.693 113.704 83.1358 112.728 68.8728C111.752 54.6098 111.898 49.6763 114.192 47.0387C116.486 44.401 122.049 44.2544 122.049 44.2544Z" fill="white"/>
<path d="M130.735 43.6683C129.808 44.4498 125.465 48.3575 126.099 64.4767C126.538 62.6694 128.539 54.0236 130.638 49.9206C130.198 49.481 129.174 49.4321 129.174 49.4321C129.174 49.4321 130.15 48.8948 131.028 49.0902C131.614 47.869 132.834 45.3779 134.054 44.0102C132.736 43.2287 130.735 43.6683 130.735 43.6683Z" fill="white"/>
<path d="M118.194 64.4767C118.194 64.4767 119.121 49.4809 122.244 44.1567C121.463 44.0102 119.95 43.9125 118.73 44.694C118.096 45.4756 117.218 48.504 117.218 49.139C118.047 48.9436 118.73 49.2856 118.73 49.2856C118.73 49.2856 117.803 49.4809 117.218 49.8717C116.974 50.9463 116.876 56.6125 118.194 64.4767Z" fill="white"/>
<path d="M133.126 62.4251H128.93C128.637 62.4251 128.442 62.1321 128.442 61.7901L128.637 59.7874C128.686 59.4455 128.93 59.1525 129.222 59.1525H133.419C133.712 59.1525 133.907 59.4455 133.907 59.7874L133.712 61.7901C133.712 62.1809 133.419 62.4251 133.126 62.4251Z" fill="white"/>
<path opacity="0.1" d="M130.686 62.4251H129.564L130.442 59.2013H131.565L130.686 62.4251Z" fill="#DD1717"/>
<path opacity="0.1" d="M132.297 62.4251H131.126L132.004 59.2013H133.175L132.297 62.4251Z" fill="#DD1717"/>
<path d="M131.223 59.5432C131.028 59.5432 130.882 59.4455 130.882 59.2501L131.028 58.3221C131.028 58.1755 131.223 58.029 131.418 58.029C131.614 58.029 131.76 58.1267 131.76 58.3221L131.614 59.2501C131.614 59.3967 131.418 59.5432 131.223 59.5432Z" fill="#DD1717"/>
<path opacity="0.2" d="M128.393 36.0483L124.83 38.8814C124.928 39.4187 124.977 39.956 124.977 40.4933C126.246 40.2979 128.051 38.9302 128.295 37.6114C128.442 36.9764 128.442 36.3414 128.393 36.0483Z" fill="black"/>
<path d="M133.322 28.1841C132.443 32.9222 132.15 34.9737 129.418 37.2695C125.318 40.6887 119.706 38.8814 119.17 34.0456C118.682 29.6983 120.243 22.6157 125.123 21.0526C130.003 19.4407 134.2 23.3972 133.322 28.1841Z" fill="#CE7A63"/>
<path d="M124.83 32.0918C123.562 32.0918 122.537 30.8218 122.488 29.2099C122.488 28.4283 122.683 27.6957 123.074 27.1095C123.513 26.5233 124.05 26.2303 124.684 26.1814H124.733C126.002 26.1814 127.026 27.4514 127.075 29.0633C127.124 30.6753 126.148 32.0429 124.83 32.0429C124.879 32.0918 124.83 32.0918 124.83 32.0918ZM124.782 26.4745C124.733 26.4745 124.733 26.4745 124.782 26.4745C124.196 26.4745 123.659 26.7676 123.318 27.3049C122.927 27.8422 122.732 28.526 122.781 29.2587C122.83 30.7241 123.806 31.8964 124.928 31.8964C126.05 31.8476 126.978 30.6264 126.929 29.161C126.831 27.6468 125.904 26.4745 124.782 26.4745Z" fill="white"/>
<path d="M122.634 29.1122C122.586 29.1122 122.586 29.1122 122.586 29.1122C122.586 29.1122 122.195 28.8191 122.049 29.0145C122 29.0633 121.902 29.0633 121.854 29.0145C121.805 28.9656 121.805 28.8679 121.854 28.8191C122.098 28.526 122.537 28.7214 122.732 28.8679C122.781 28.9168 122.781 28.9656 122.781 29.0145C122.683 29.0633 122.634 29.1122 122.634 29.1122Z" fill="white"/>
<path d="M119.755 31.6522C118.486 31.6522 117.462 30.3822 117.413 28.7703C117.364 27.1583 118.34 25.7906 119.658 25.7906H119.706C120.975 25.7906 122 27.0606 122.049 28.6726C122.098 30.2845 121.122 31.6522 119.804 31.6522H119.755ZM119.658 26.0349C118.486 26.0837 117.559 27.3049 117.608 28.7703C117.657 30.2356 118.584 31.4079 119.706 31.4079H119.755C120.878 31.3591 121.805 30.1379 121.756 28.6726C121.756 27.2072 120.78 26.0349 119.658 26.0349Z" fill="white"/>
<path d="M130.003 23.7391C128.051 28.0864 131.321 30.0891 131.76 31.4568C132.443 35.2179 123.854 42.7402 126.392 54.4632C130.101 47.9179 135.176 48.2109 135.713 43.8148C136.25 39.2721 134.005 36.9764 136.396 32.6291C138.787 28.2818 139.666 23.1041 135.42 22.3226C131.223 21.4922 130.003 23.7391 130.003 23.7391Z" fill="#263238"/>
<path d="M132.59 49.0413C132.541 49.0413 132.541 49.0413 132.492 48.9925C132.443 48.9436 132.443 48.846 132.492 48.7971C134.932 46.5502 135.127 43.6194 135.322 40.5421C135.469 38.4906 135.566 36.3902 136.396 34.4364C137.811 30.9683 138.982 26.0837 137.616 23.788C137.177 23.0553 136.542 22.6645 135.713 22.5668C135.664 22.5668 135.615 22.518 135.615 22.4203C135.615 22.3714 135.664 22.3226 135.762 22.3226C136.689 22.4203 137.372 22.9088 137.86 23.6903C139.275 26.0837 138.153 30.8706 136.64 34.5829C135.859 36.5368 135.713 38.5883 135.566 40.591C135.371 43.7171 135.176 46.6967 132.638 48.9925C132.638 49.0413 132.59 49.0413 132.59 49.0413Z" fill="#263238"/>
<path d="M131.126 24.2276C127.905 24.5695 122.244 24.2276 120.926 22.5668C119.609 20.9061 121.317 16.7053 125.123 16.0703C128.198 15.533 130.052 19.343 130.052 19.343C130.052 19.343 132.98 17.8776 135.518 21.248C137.811 24.2276 132.736 27.6957 131.126 24.2276Z" fill="#263238"/>
<path d="M132.346 30.4799C132.297 30.4799 132.297 30.4799 132.346 30.4799L126.929 29.5518C126.88 29.5518 126.831 29.4541 126.831 29.4053C126.831 29.3564 126.929 29.3076 126.978 29.3076L132.346 30.2357C132.394 30.2357 132.443 30.3334 132.443 30.3822C132.443 30.431 132.394 30.4799 132.346 30.4799Z" fill="white"/>
<path d="M125.806 28.9656C125.758 29.3564 125.514 29.6983 125.221 29.6495C124.977 29.6495 124.782 29.3076 124.879 28.868C124.928 28.4772 125.172 28.1353 125.465 28.1841C125.709 28.233 125.855 28.5749 125.806 28.9656Z" fill="#263238"/>
<path d="M120.926 28.6726C120.878 29.0634 120.634 29.4053 120.341 29.3564C120.097 29.3564 119.902 29.0145 119.999 28.5749C120.048 28.1841 120.292 27.8422 120.585 27.891C120.829 27.9399 120.975 28.2818 120.926 28.6726Z" fill="#263238"/>
<path d="M120.682 27.9399L119.755 27.598C119.755 27.598 120.146 28.3795 120.682 27.9399Z" fill="#263238"/>
<path d="M122.195 29.4541C122.195 29.4541 121.268 31.1637 120.438 31.9452C120.878 32.4826 121.805 32.336 121.805 32.336L122.195 29.4541Z" fill="#BA4D3C"/>
<path d="M123.854 33.9479C123.659 33.9479 123.415 33.9968 123.171 33.9479C123.122 33.9479 123.074 33.8991 123.074 33.8014C123.074 33.7526 123.122 33.7037 123.22 33.7037C124.928 33.8502 125.953 32.6779 125.953 32.6291C126.002 32.5803 126.05 32.5803 126.099 32.6291C126.148 32.6779 126.148 32.7268 126.099 32.7756C126.05 32.8245 125.27 33.8014 123.854 33.9479Z" fill="#263238"/>
<path d="M133.029 32.971C132.443 33.8991 131.565 34.3875 130.784 34.4852C129.662 34.6318 129.32 33.3129 129.857 32.0918C130.345 31.0172 131.467 29.6006 132.541 29.9914C133.566 30.431 133.712 31.9452 133.029 32.971Z" fill="#CE7A63"/>
<path d="M127.368 27.1584C127.319 27.1584 127.27 27.1095 127.222 27.0607C126.734 26.1814 125.855 26.1326 125.855 26.1326C125.709 26.1326 125.611 26.0349 125.66 25.8884C125.66 25.7418 125.806 25.6441 125.904 25.6441C125.953 25.6441 127.026 25.693 127.661 26.7676C127.71 26.8653 127.661 27.0118 127.563 27.1095C127.514 27.1584 127.417 27.1584 127.368 27.1584Z" fill="#263238"/>
<path d="M119.999 25.5464C119.95 25.5464 119.902 25.5464 119.853 25.4976C119.755 25.3999 119.755 25.2534 119.853 25.1557C120.731 24.1299 121.805 24.2764 121.854 24.2764C122 24.2764 122.049 24.423 122.049 24.5207C122.049 24.6672 121.902 24.7649 121.756 24.716C121.707 24.716 120.878 24.6184 120.146 25.4487C120.146 25.4976 120.048 25.5464 119.999 25.5464Z" fill="#263238"/>
<path d="M125.562 28.233L124.635 27.8911C124.635 27.8911 125.026 28.6726 125.562 28.233Z" fill="#263238"/>
<path d="M133.566 79.0328L133.907 77.5674C134.054 77.0301 134.444 76.5416 134.932 76.3462L137.372 75.3693C138.348 74.9785 139.47 75.0762 140.349 75.6135L140.886 75.9555C140.495 78.4466 138.202 80.7912 138.202 80.7912L137.616 81.5239C137.128 82.2077 136.201 82.3543 135.566 81.8658L134.054 80.7424C133.614 80.4004 133.37 79.6677 133.566 79.0328Z" fill="#CE7A63"/>
<path d="M138.299 45.5733C138.543 45.7198 138.69 45.8663 138.885 45.964L139.422 46.3548C139.763 46.599 140.105 46.8433 140.398 47.1363C141.032 47.6736 141.666 48.211 142.301 48.7483C143.521 49.8717 144.692 51.044 145.814 52.314C146.937 53.584 147.962 54.9028 148.889 56.3194C149.328 57.0521 149.767 57.7848 150.206 58.5174C150.597 59.299 150.987 60.0805 151.329 60.8621L151.573 61.4971L151.622 61.5947L151.67 61.7413L151.768 62.0344C151.817 62.2297 151.866 62.4251 151.914 62.6205C152.061 63.402 152.012 64.1347 151.914 64.7209C151.719 65.942 151.28 66.9189 150.89 67.7493C150.011 69.4589 149.035 70.8266 147.962 72.0966C146.937 73.4155 145.863 74.5878 144.741 75.7601C144.204 76.3462 143.618 76.9324 143.082 77.5185L142.203 78.3489C141.91 78.642 141.666 78.8862 141.325 79.2281L136.835 73.7574C137.079 73.6108 137.372 73.3666 137.665 73.1224L138.494 72.4385C139.031 71.9989 139.617 71.5105 140.154 71.022C141.227 70.0451 142.252 69.0682 143.179 67.9936C144.106 66.9678 144.936 65.8443 145.473 64.8674C145.717 64.379 145.912 63.8905 145.961 63.6463C145.961 63.4997 145.961 63.4509 145.961 63.4997C145.961 63.4997 145.961 63.4997 145.961 63.5486C145.961 63.5486 145.961 63.5486 145.961 63.5974V63.5486L145.766 63.109C144.79 60.7155 143.228 58.4198 141.325 56.4171C140.398 55.4402 139.324 54.4632 138.25 53.6329C137.714 53.1932 137.128 52.8025 136.591 52.4117C136.298 52.2163 136.006 52.0209 135.713 51.8256L135.274 51.5813C135.127 51.4836 134.981 51.3859 134.883 51.3859L138.299 45.5733Z" fill="#DD1717"/>
<path opacity="0.7" d="M138.299 45.5733C138.543 45.7198 138.69 45.8663 138.885 45.964L139.422 46.3548C139.763 46.599 140.105 46.8433 140.398 47.1363C141.032 47.6736 141.666 48.211 142.301 48.7483C143.521 49.8717 144.692 51.044 145.814 52.314C146.937 53.584 147.962 54.9028 148.889 56.3194C149.328 57.0521 149.767 57.7848 150.206 58.5174C150.597 59.299 150.987 60.0805 151.329 60.8621L151.573 61.4971L151.622 61.5947L151.67 61.7413L151.768 62.0344C151.817 62.2297 151.866 62.4251 151.914 62.6205C152.061 63.402 152.012 64.1347 151.914 64.7209C151.719 65.942 151.28 66.9189 150.89 67.7493C150.011 69.4589 149.035 70.8266 147.962 72.0966C146.937 73.4155 145.863 74.5878 144.741 75.7601C144.204 76.3462 143.618 76.9324 143.082 77.5185L142.203 78.3489C141.91 78.642 141.666 78.8862 141.325 79.2281L136.835 73.7574C137.079 73.6108 137.372 73.3666 137.665 73.1224L138.494 72.4385C139.031 71.9989 139.617 71.5105 140.154 71.022C141.227 70.0451 142.252 69.0682 143.179 67.9936C144.106 66.9678 144.936 65.8443 145.473 64.8674C145.717 64.379 145.912 63.8905 145.961 63.6463C145.961 63.4997 145.961 63.4509 145.961 63.4997C145.961 63.4997 145.961 63.4997 145.961 63.5486C145.961 63.5486 145.961 63.5486 145.961 63.5974V63.5486L145.766 63.109C144.79 60.7155 143.228 58.4198 141.325 56.4171C140.398 55.4402 139.324 54.4632 138.25 53.6329C137.714 53.1932 137.128 52.8025 136.591 52.4117C136.298 52.2163 136.006 52.0209 135.713 51.8256L135.274 51.5813C135.127 51.4836 134.981 51.3859 134.883 51.3859L138.299 45.5733Z" fill="white"/>
</g>
<defs>
<clipPath id="clip0_7_2990">
<rect width="244" height="182" fill="white"/>
</clipPath>
</defs>
</svg>
